<svg version="1.1" xmlns="http://www.w3.org/2000/svg" xmlns:xlink="http://www.w3.org/1999/xlink" width="22" height="25" viewBox="0 0 22 25"><path id="Advertisement" d="M21.855,13.080 C21.764,13.159 21.548,13.198 21.452,13.142 C21.333,13.074 21.221,12.896 21.209,12.757 C21.168,12.261 21.199,11.760 21.152,11.265 C20.866,8.275 19.595,5.762 17.348,3.745 C15.460,2.050 13.225,1.104 10.692,0.841 C10.409,0.811 10.123,0.804 9.951,0.794 C9.611,0.794 9.384,0.792 9.157,0.794 C8.859,0.797 8.673,0.659 8.657,0.418 C8.642,0.186 8.819,-0.005 9.116,0.001 C9.804,0.014 10.497,0.012 11.178,0.098 C13.443,0.383 15.487,1.222 17.271,2.634 C19.810,4.644 21.363,7.240 21.855,10.425 C21.970,11.168 21.969,11.929 22.001,12.683 C22.006,12.817 21.951,12.998 21.855,13.080 zM10.394,9.203 C11.289,8.601 12.082,8.620 12.692,9.224 C13.166,9.694 13.410,10.610 12.655,11.511 C12.734,11.553 12.842,11.583 12.912,11.650 C13.475,12.197 14.034,12.749 14.590,13.304 C15.093,13.805 15.182,14.555 14.824,15.135 C14.667,15.389 14.457,15.511 14.149,15.540 C12.434,15.702 10.758,16.038 9.214,16.827 C8.629,17.126 8.094,17.523 7.541,17.882 C7.445,17.944 7.371,18.037 7.273,18.128 C7.746,18.718 8.209,19.296 8.672,19.874 C9.278,20.628 9.885,21.382 10.490,22.137 C10.813,22.539 10.799,23.009 10.439,23.376 C10.006,23.817 9.565,24.251 9.119,24.680 C8.738,25.047 8.141,25.100 7.619,24.827 C7.314,24.668 7.059,24.447 6.919,24.134 C6.827,23.928 6.698,23.771 6.516,23.646 C6.496,23.632 6.475,23.616 6.461,23.596 C6.106,23.103 5.751,22.609 5.398,22.115 C5.360,22.062 5.344,21.981 5.294,21.950 C4.904,21.708 4.651,21.355 4.440,20.895 C4.317,21.031 4.224,21.147 4.116,21.248 C3.418,21.898 2.401,21.910 1.702,21.262 C1.285,20.877 0.881,20.475 0.490,20.065 C-0.172,19.370 -0.162,18.345 0.517,17.662 C1.382,16.790 2.248,15.918 3.138,15.072 C4.560,13.721 5.407,12.059 5.854,10.189 C6.046,9.384 6.150,8.558 6.276,7.739 C6.342,7.311 6.650,6.997 7.147,6.910 C7.700,6.813 8.174,6.952 8.572,7.352 C9.121,7.902 9.677,8.445 10.228,8.993 C10.293,9.058 10.342,9.137 10.394,9.203 zM12.097,9.771 C11.798,9.481 11.353,9.478 11.065,9.742 C11.425,10.103 11.786,10.465 12.147,10.825 C12.423,10.502 12.407,10.071 12.097,9.771 zM5.309,20.810 C5.430,20.998 5.632,21.134 5.790,21.301 C5.895,21.411 6.024,21.518 6.077,21.651 C6.170,21.886 6.309,22.060 6.516,22.207 C6.632,22.290 6.702,22.441 6.784,22.567 C6.899,22.744 6.967,22.984 7.127,23.092 C7.369,23.257 7.511,23.439 7.612,23.713 C7.804,24.231 8.339,24.325 8.726,23.943 C9.076,23.597 9.421,23.246 9.779,22.908 C9.911,22.784 9.918,22.697 9.801,22.557 C9.397,22.069 9.005,21.571 8.609,21.078 C7.978,20.292 7.347,19.506 6.698,18.699 C6.256,19.135 5.841,19.545 5.426,19.956 C5.122,20.256 5.078,20.448 5.309,20.810 zM7.989,7.908 C7.811,7.731 7.607,7.648 7.353,7.687 C7.173,7.715 7.095,7.793 7.065,7.991 C6.952,8.754 6.843,9.520 6.668,10.270 C6.163,12.441 5.150,14.332 3.480,15.865 C2.668,16.610 1.906,17.409 1.126,18.188 C0.705,18.608 0.703,19.143 1.118,19.559 C1.489,19.932 1.853,20.314 2.247,20.661 C2.417,20.812 2.656,20.886 2.863,20.995 C2.874,20.972 2.885,20.949 2.896,20.926 C3.211,20.949 3.440,20.795 3.650,20.587 C4.599,19.646 5.562,18.719 6.497,17.764 C7.337,16.907 8.338,16.302 9.434,15.836 C10.874,15.225 12.391,14.916 13.942,14.752 C14.125,14.733 14.186,14.650 14.218,14.497 C14.278,14.202 14.144,13.988 13.943,13.790 C12.866,12.729 11.793,11.664 10.717,10.602 C9.808,9.704 8.897,8.808 7.989,7.908 zM10.857,4.883 C10.323,4.796 9.770,4.813 9.225,4.796 C8.949,4.788 8.772,4.686 8.734,4.469 C8.688,4.209 8.846,4.001 9.151,4.003 C9.737,4.008 10.333,3.992 10.908,4.086 C13.467,4.501 15.437,5.816 16.791,8.001 C17.675,9.428 18.042,10.997 17.967,12.667 C17.954,12.962 17.790,13.138 17.552,13.132 C17.302,13.127 17.158,12.939 17.162,12.626 C17.164,12.485 17.162,12.343 17.162,12.202 C17.146,8.560 14.498,5.476 10.857,4.883 z" fill="#757575" /></svg>